Coordinates
version=1
nRows=19
nColumns=36
inDegrees=yes

Units are S.I. units (second, meters, Newtons, ...)
If the header above contains a line with 'inDegrees', this indicates whether rotational values are in degrees (yes) or radians (no).

endheader
time	pelvis_tilt	pelvis_list	pelvis_rotation	pelvis_tx	pelvis_ty	pelvis_tz	hip_flexion_r	hip_adduction_r	hip_rotation_r	knee_angle_r	knee_angle_r_beta	ankle_angle_r	subtalar_angle_r	mtp_angle_r	hip_flexion_l	hip_adduction_l	hip_rotation_l	knee_angle_l	knee_angle_l_beta	ankle_angle_l	subtalar_angle_l	mtp_angle_l	lumbar_extension	lumbar_bending	lumbar_rotation	arm_flex_r	arm_add_r	arm_rot_r	elbow_flex_r	pro_sup_r	arm_flex_l	arm_add_l	arm_rot_l	elbow_flex_l	pro_sup_l
      5.16250000	    -13.24411554	      1.65980391	     -0.29127791	      0.44447356	      0.95234577	     -0.12344313	      5.77826426	     -9.60619869	     -8.70888320	      0.39562053	      0.00690488	      5.65004865	     -4.83137153	     -7.49999987	      8.16163497	     -2.29853911	     -3.02155381	      0.66438524	      0.01159571	      1.81326397	     -4.37340740	     -7.49999987	      1.61339174	      0.30191804	     -0.51128361	    -13.75579885	    -19.28703441	     16.68397586	     71.67344082	     78.14760704	     -4.36567840	    -19.66845601	     27.23694178	     84.38909388	     75.84061106
      5.16666670	    -13.30564049	      1.68928161	     -0.35812586	      0.44825430	      0.95241433	     -0.12803805	      5.76032709	     -9.72136887	     -8.71785518	      0.36376271	      0.00634886	      5.70216073	     -4.75490347	     -7.49999987	      8.13399369	     -2.24461602	     -3.04005408	      0.60019081	      0.01047531	      1.84948520	     -4.36430990	     -7.49999987	      1.75342004	      0.35908524	     -0.50500376	    -13.70874521	    -19.56791930	     16.59145444	     71.69446124	     78.16984636	     -4.27289018	    -19.66674869	     27.18730119	     84.43124971	     75.85557729
      5.17083330	    -13.46181353	      1.67422696	     -0.54267558	      0.44804808	      0.95529738	     -0.12808958	      5.89641494	     -9.80308514	     -8.96636859	      0.34515004	      0.00602400	      5.97951817	     -3.87880862	     -7.49999987	      8.18693567	     -2.25121573	     -3.25013827	      0.53952640	      0.00941651	      2.04534898	     -4.26171259	     -7.49999987	      2.05109746	      0.51697652	     -0.27541514	    -13.89378479	    -20.01289237	     16.47562378	     72.03840316	     78.01606497	     -4.22091560	    -19.39776511	     27.04944143	     84.11849590	     75.61067450
      5.17500000	    -13.61292406	      1.73144663	     -0.69169750	      0.44790096	      0.95228312	     -0.12760783	      6.03196550	     -9.93982978	     -9.15818112	      0.32226191	      0.00562453	      6.24187066	     -3.26500813	     -7.49999987	      8.26294906	     -2.18318014	     -3.33003355	      0.48927872	      0.00853952	      2.11756603	     -4.21967277	     -7.49999987	      2.29417711	      0.53371761	     -0.14082529	    -13.99926037	    -20.24945272	     16.14598534	     72.28257744	     77.93437513	     -4.22446748	    -19.36565430	     26.74819047	     84.13194055	     75.41920480
      5.17916670	    -13.78773822	      1.77149810	     -0.87272986	      0.44747903	      0.95545716	     -0.12732417	      6.22494118	    -10.02268295	     -9.26630561	      0.30281245	      0.00528507	      6.34649201	     -2.73646016	     -7.49999987	      8.37466195	     -2.15920130	     -3.43482172	      0.45197583	      0.00788847	      2.09144638	     -4.22404000	     -7.49999987	      2.53902613	      0.53953162	     -0.03643024	    -13.87580361	    -20.38695629	     15.78137634	     72.23309856	     77.60462391	     -4.11148899	    -19.23066212	     26.49414320	     83.95610761	     75.00000242
      5.18333330	    -13.93738392	      1.77829994	     -0.97814358	      0.44750853	      0.94924576	     -0.12695318	      6.36859936	    -10.07393392	     -9.44235767	      0.28695187	      0.00500825	      6.67266035	     -2.12527355	     -7.49999987	      8.45253710	     -2.13196074	     -3.47295023	      0.43522388	      0.00759609	      2.23800531	     -4.36437137	     -7.49999987	      2.76109020	      0.58546673	      0.07110868	    -14.05535576	    -20.50603848	     15.31295336	     72.54878152	     80.08768657	     -4.27591724	    -19.22025467	     25.99124148	     84.24279468	     76.19667175
      5.18750000	    -14.12271397	      1.84790073	     -1.17838677	      0.44727450	      0.94649738	     -0.12643478	      6.57897613	    -10.18402998	     -9.35214262	      0.27713514	      0.00483692	      6.89726043	     -1.78808152	     -7.49999987	      8.56300528	     -2.08330365	     -3.67961059	      0.41240022	      0.00719774	      2.36744823	     -4.42260777	     -7.49999987	      3.05015126	      0.51636794	      0.18434678	    -14.20616745	    -20.54656255	     14.87775969	     72.91747631	     78.67519050	     -4.27128328	    -19.29645503	     25.70028264	     84.53646307	     75.03454651
      5.19166670	    -14.31769203	      1.90154046	     -1.34030616	      0.44734966	      0.94675361	     -0.12616176	      6.78936179	    -10.29467770	     -9.55764413	      0.26736081	      0.00466633	      7.31731950	     -0.96334742	     -7.49999987	      8.71339530	     -2.04484940	     -3.82453677	      0.40128783	      0.00700379	      2.57545960	     -4.40560655	     -7.49999987	      3.33921904	      0.48888964	      0.32296924	    -14.48676846	    -20.47438474	     14.12957469	     73.38540062	     78.74733092	     -4.32062912	    -19.22253067	     25.22603426	     84.69522695	     74.82601873
      5.19583330	    -14.54377610	      1.94174599	     -1.52574566	      0.44722079	      0.94706166	     -0.12598897	      7.08820132	    -10.37318846	     -9.45665380	      0.25690506	      0.00448384	      7.49691765	     -0.63784888	     -7.49999987	      8.90243774	     -2.02614067	     -3.90941321	      0.38096591	      0.00664911	      2.63297681	     -4.51044913	     -7.49999987	      3.66648427	      0.45400444	      0.49316356	    -14.41535465	    -20.53453151	     13.84690594	     73.32058022	     77.56649395	     -4.32612886	    -19.15227735	     25.01561441	     84.66355673	     73.85144382
      5.20000000	    -14.65709716	      1.95328755	     -1.77676223	      0.44744674	      0.94435671	     -0.12580460	      7.27730421	    -10.40987004	     -9.28193188	      0.24977785	      0.00435945	      7.67455897	     -0.26618204	     -7.49999987	      8.94551472	     -2.04060664	     -4.13757166	      0.36997670	      0.00645731	      2.88266230	     -4.37940329	     -7.49999987	      3.85566218	      0.44659930	      0.57553172	    -14.40408896	    -20.49525150	     13.41309783	     73.41929197	     76.16178440	     -4.36582152	    -19.00166861	     24.71949716	     84.72102087	     72.66344755
      5.20416670	    -14.81864229	      1.98924210	     -1.99708781	      0.44741500	      0.94793946	     -0.12581099	      7.52523646	    -10.46333961	     -9.24791414	      0.24544977	      0.00428391	      7.82567864	      0.24779492	     -7.49999987	      9.06775106	     -2.04026432	     -4.25928599	      0.36404615	      0.00635380	      2.80438934	     -4.54398378	     -7.49999987	      4.03525500	      0.41204204	      0.62162954	    -14.32950625	    -20.41936836	     13.01083147	     73.30614261	     76.03007098	     -4.36006661	    -18.89194721	     24.47603636	     84.66772250	     72.42341249
      5.20833330	    -15.04465951	      2.02228899	     -2.26428843	      0.44752622	      0.94802202	     -0.12555731	      7.86816546	    -10.49305295	     -8.98417745	      0.24069294	      0.00420088	      7.78443581	      0.43949205	     -7.49999987	      9.24460866	     -2.05043410	     -4.40152472	      0.35924543	      0.00627002	      2.72771643	     -4.70410765	     -7.49999987	      4.35080864	      0.37749363	      0.67071206	    -14.25341712	    -20.21461488	     12.29894324	     73.04627109	     79.94325109	     -4.44727375	    -18.77665551	     23.99126230	     84.51022463	     74.93599968
      5.21250000	    -15.75557542	      2.07709451	     -2.47826461	      0.44771007	      0.94732260	     -0.12541989	      8.71077891	    -10.49577539	     -8.74493494	      0.24195419	      0.00422290	      7.73444231	      0.61196651	     -7.49999987	      9.96330318	     -2.04391092	     -4.71167169	      0.37416093	      0.00653034	      2.74604387	     -4.73589788	     -7.49999987	      5.45908749	      0.36835285	      0.74555897	    -14.54109149	    -20.07693374	     12.25215239	     72.94570756	     78.80524736	     -4.69718929	    -18.72941959	     24.03198150	     84.29646748	     74.09154036
      5.21666670	    -15.23379720	      2.08200161	     -2.70953483	      0.44769830	      0.94547777	     -0.12507928	      8.20070986	    -10.50473449	     -8.68603849	      0.24186830	      0.00422140	      7.78238735	      0.97336100	     -7.49999987	      9.34065566	     -2.04000670	     -4.90729537	      0.35845490	      0.00625622	      2.67906387	     -4.94135155	     -7.49999987	      4.77699725	      0.31518227	      0.96615193	    -14.25091810	    -19.98177821	     12.07202163	     72.62150056	     76.32888382	     -4.33968747	    -18.66886172	     24.17658385	     84.27799736	     72.25213311
      5.22083330	    -15.27453677	      2.12683517	     -2.91110203	      0.44769350	      0.94866992	     -0.12527796	      8.29238406	    -10.51461497	     -8.34828519	      0.24358660	      0.00425139	      7.63421506	      0.83654122	     -7.49999987	      9.33770536	     -2.02583996	     -5.19270052	      0.35391540	      0.00617699	      2.63183466	     -4.86317695	     -7.49999987	      4.83378509	      0.27690224	      1.09126419	    -14.10789750	    -19.90818754	     11.86230562	     72.44949335	     75.07710662	     -4.35368518	    -18.54965785	     24.21202062	     84.13804672	     71.30955167
      5.22500000	    -16.18363147	      2.21144164	     -3.06142685	      0.44814225	      0.94748148	     -0.12518137	      9.30810701	    -10.53553920	     -7.91876062	      0.25086440	      0.00437841	      7.54389241	      0.54388710	     -7.49999987	     10.27460062	     -2.00538469	     -5.45370071	      0.38097522	      0.00664927	      2.87113129	     -4.46974133	     -7.49999987	      6.24674750	      0.29161324	      1.17094148	    -14.37105204	    -19.95466537	     11.79864967	     72.47125997	     73.99902298	     -4.73392001	    -18.48005149	     24.32253353	     83.97920904	     70.51968335
      5.22916670	    -15.37608759	      2.12817860	     -3.06907162	      0.44774257	      0.94888735	     -0.12549627	      8.45081063	    -10.50966959	     -8.24331998	      0.24718604	      0.00431421	      7.61214712	      1.23046519	     -7.49999987	      9.41325665	     -2.00845327	     -5.18206737	      0.35047856	      0.00611700	      2.36035583	     -5.18839772	     -7.49999987	      4.89178229	      0.29638251	      1.02806445	    -13.79253594	    -19.71415034	     11.15308511	     72.18240169	     77.64520182	     -4.26012914	    -18.18322569	     23.98791016	     84.04841456	     73.03063641
      5.23333330	    -15.36346892	      2.16767667	     -3.23847528	      0.44783123	      0.94896313	     -0.12543217	      8.51026761	    -10.55308761	     -7.79897245	      0.24455553	      0.00426830	      7.39294003	      0.72382333	     -7.49999987	      9.38348969	     -1.97509267	     -5.55318779	      0.34776133	      0.00606958	      2.48051832	     -4.79030119	     -7.49999987	      4.90310403	      0.27651262	      1.14272223	    -13.60660678	    -19.74024871	     11.04490914	     71.90557879	     76.58532900	     -4.20387187	    -18.09895324	     24.11437402	     83.77630360	     72.24122674
      5.23750000	    -15.33677478	      2.16840418	     -3.36982100	      0.44776605	      0.94925612	     -0.12555011	      8.56372731	    -10.53712502	     -7.49292627	      0.24676121	      0.00430680	      7.24590233	      0.47260335	     -7.49999987	      9.33685538	     -1.98097405	     -5.73538666	      0.34212463	      0.00597120	      2.47556952	     -4.76722108	     -7.49999987	      4.82628961	      0.28552550	      1.21530212	    -13.34227556	    -19.87101411	     11.20578657	     71.75055423	     76.29234111	     -4.00316935	    -18.06580201	     24.36303668	     83.57292463	     71.98295288
